<svg xmlns="http://www.w3.org/2000/svg" viewBox="0 0 200 200">
<rect width="200" height="200" rx="12" fill="#FFF8F0"/>
<defs>
  <marker id="ah" markerWidth="8" markerHeight="6" refX="8" refY="3" orient="auto">
    <path d="M0,0 L8,3 L0,6" fill="#E07B54"/>
  </marker>
</defs>
<path d="M90,125 L82,165 L95,155" fill="#FF69B4"/>
<path d="M110,125 L118,165 L105,155" fill="#FF69B4"/>
<path d="M40,62 L90,75 L90,82 L70,82 L40,82 Z" fill="#FF69B4"/>
<path d="M160,62 L110,75 L110,82 L130,82 L160,82 Z" fill="#FF69B4"/>
<path d="M70,82 L40,135 L90,125 L90,82 Z" fill="#FF1493" opacity="0.7"/>
<path d="M130,82 L160,135 L110,125 L110,82 Z" fill="#FF1493" opacity="0.7"/>
<polygon points="90,75 110,75 110,125 90,125" fill="#CC0066" opacity="0.8"/>
<text x="100" y="185" font-family="sans-serif" font-size="11" fill="#3D2B1F" text-anchor="middle">完成！</text>
</svg>