<svg xmlns="http://www.w3.org/2000/svg" viewBox="0 0 200 200">
<rect width="200" height="200" rx="12" fill="#FFF8F0"/>
<defs>
  <marker id="ah" markerWidth="8" markerHeight="6" refX="8" refY="3" orient="auto">
    <path d="M0,0 L8,3 L0,6" fill="#E07B54"/>
  </marker>
</defs>
<polygon points="70,50 130,50 140,140 100,160 60,140" fill="#F4A460" opacity="0.9"/>
<polygon points="80,65 120,65 125,130 100,145 75,130" fill="#FEFEFE" opacity="0.9"/>
<polygon points="70,50 88,40 92,50" fill="#D4884A" opacity="0.9"/>
<circle cx="85" cy="55" r="3" fill="#FEFEFE"/>
<circle cx="115" cy="55" r="3" fill="#FEFEFE"/>
<circle cx="86" cy="54" r="1.5" fill="#3D2B1F"/>
<circle cx="116" cy="54" r="1.5" fill="#3D2B1F"/>
<polygon points="100,65 96,72 104,72" fill="#E07B54"/>
<polygon points="60,85 42,108 60,105" fill="#F4A460" opacity="0.7"/>
<polygon points="140,85 158,108 140,105" fill="#F4A460" opacity="0.7"/>
<text x="100" y="185" font-family="sans-serif" font-size="11" fill="#3D2B1F" text-anchor="middle">完成！</text>
</svg>