<svg xmlns="http://www.w3.org/2000/svg" viewBox="0 0 200 200">
<rect width="200" height="200" rx="12" fill="#FFF8F0"/>
<defs>
  <marker id="ah" markerWidth="8" markerHeight="6" refX="8" refY="3" orient="auto">
    <path d="M0,0 L8,3 L0,6" fill="#E07B54"/>
  </marker>
</defs>
<polygon points="45,110 155,110 155,160 45,160" fill="#90EE90" opacity="0.6"/>
<path d="M100,45 Q70,40 50,60 Q40,75 55,95 Q70,108 100,112 Q130,108 145,95 Q160,75 150,60 Q130,40 100,45" fill="#FFB6C1" opacity="0.9"/>
<path d="M100,55 Q80,52 68,65 Q60,78 72,88 L100,98 L128,88 Q140,78 132,65 Q120,52 100,55" fill="#FF9EAF" opacity="0.7"/>
<circle cx="100" cy="72" r="5" fill="#FFD700"/>
<text x="100" y="185" font-family="sans-serif" font-size="11" fill="#3D2B1F" text-anchor="middle">完成！</text>
</svg>