<svg xmlns="http://www.w3.org/2000/svg" viewBox="0 0 200 200">
<rect width="200" height="200" rx="12" fill="#FFF8F0"/>
<defs>
  <marker id="ah" markerWidth="8" markerHeight="6" refX="8" refY="3" orient="auto">
    <path d="M0,0 L8,3 L0,6" fill="#E07B54"/>
  </marker>
</defs>
<path d="M85,40 Q90,30 95,40 L95,60 Q90,70 85,60 Z" fill="#FF69B4"/>
<path d="M95,60 Q100,50 105,60 L105,80 Q100,90 95,80 Z" fill="#4169E1"/>
<path d="M105,80 Q110,70 115,80 L115,100 Q110,110 105,100 Z" fill="#FF69B4"/>
<path d="M115,100 Q120,90 125,100 L125,120 Q120,130 115,120 Z" fill="#4169E1"/>
<path d="M125,120 Q130,110 135,120 L135,140 Q130,150 125,140 Z" fill="#FF69B4"/>
<text x="100" y="185" font-family="sans-serif" font-size="11" fill="#3D2B1F" text-anchor="middle">完成！</text>
</svg>