<svg xmlns="http://www.w3.org/2000/svg" viewBox="0 0 200 200">
<rect width="200" height="200" rx="12" fill="#FFF8F0"/>
<defs>
  <marker id="ah" markerWidth="8" markerHeight="6" refX="8" refY="3" orient="auto">
    <path d="M0,0 L8,3 L0,6" fill="#E07B54"/>
  </marker>
</defs>
<polygon points="55,70 140,70 155,85 155,115 140,130 55,130" fill="#F4A460" opacity="0.9"/>
<polygon points="55,70 65,70 65,130 55,130" fill="#FEFEFE" opacity="0.7"/>
<circle cx="78" cy="95" r="8" fill="#FEFEFE"/>
<circle cx="80" cy="94" r="4" fill="#3D2B1F"/>
<path d="M95,85 Q105,80 110,88" stroke="#D4884A" stroke-width="1" fill="none"/>
<path d="M95,98 Q105,93 110,101" stroke="#D4884A" stroke-width="1" fill="none"/>
<path d="M95,111 Q105,106 110,114" stroke="#D4884A" stroke-width="1" fill="none"/>
<path d="M110,91 Q120,86 125,94" stroke="#D4884A" stroke-width="1" fill="none"/>
<path d="M110,104 Q120,99 125,107" stroke="#D4884A" stroke-width="1" fill="none"/>
<text x="100" y="185" font-family="sans-serif" font-size="11" fill="#3D2B1F" text-anchor="middle">完成！</text>
</svg>