<svg xmlns="http://www.w3.org/2000/svg" viewBox="0 0 200 200">
<rect width="200" height="200" rx="12" fill="#FFF8F0"/>
<defs>
  <marker id="ah" markerWidth="8" markerHeight="6" refX="8" refY="3" orient="auto">
    <path d="M0,0 L8,3 L0,6" fill="#E07B54"/>
  </marker>
</defs>
<polygon points="40,50 70,30 100,30 130,30 160,50" fill="#F4A460" opacity="0.9"/>
<polygon points="50,55 65,50 70,30" fill="#D4884A" opacity="0.6"/>
<polygon points="150,55 135,50 130,30" fill="#D4884A" opacity="0.6"/>
<polygon points="40,50 160,50 160,80 40,80" fill="#FEFEFE" opacity="0.9"/>
<polygon points="40,80 160,80 160,110 40,110" fill="#FEFEFE" opacity="0.7"/>
<line x1="40" y1="80" x2="160" y2="80" stroke="#CC8855" stroke-width="1.5" stroke-dasharray="5,3"/>
<path d="M100,55 Q105,70 100,78" stroke="#E07B54" stroke-width="2" fill="none" marker-end="url(#ah)"/>
<path d="M100,108 Q105,95 100,82" stroke="#E07B54" stroke-width="2" fill="none" marker-end="url(#ah)"/>
<text x="100" y="185" font-family="sans-serif" font-size="11" fill="#3D2B1F" text-anchor="middle">ジャバラ折り</text>
</svg>