<svg xmlns="http://www.w3.org/2000/svg" viewBox="0 0 200 200">
<rect width="200" height="200" rx="12" fill="#FFF8F0"/>
<defs>
  <marker id="ah" markerWidth="8" markerHeight="6" refX="8" refY="3" orient="auto">
    <path d="M0,0 L8,3 L0,6" fill="#E07B54"/>
  </marker>
</defs>
<polygon points="40,80 70,50 100,50 130,50 160,80 160,150 40,150" fill="#F4A460" opacity="0.9"/>
<polygon points="40,80 35,60 55,65 70,50" fill="#D4884A" opacity="0.7"/>
<polygon points="160,80 165,60 145,65 130,50" fill="#D4884A" opacity="0.7"/>
<polygon points="40,120 160,120 160,150 40,150" fill="#D4884A" opacity="0.4"/>
<circle cx="80" cy="75" r="4" fill="#3D2B1F"/>
<circle cx="120" cy="75" r="4" fill="#3D2B1F"/>
<path d="M90,92 Q100,100 110,92" stroke="#3D2B1F" stroke-width="2" fill="none"/>
<text x="100" y="185" font-family="sans-serif" font-size="11" fill="#3D2B1F" text-anchor="middle">完成！</text>
</svg>