<svg xmlns="http://www.w3.org/2000/svg" viewBox="0 0 200 200">
<rect width="200" height="200" rx="12" fill="#FFF8F0"/>
<defs>
  <marker id="ah" markerWidth="8" markerHeight="6" refX="8" refY="3" orient="auto">
    <path d="M0,0 L8,3 L0,6" fill="#E07B54"/>
  </marker>
</defs>
<path d="M100,42 Q68,36 48,55 Q38,75 50,98 Q65,115 100,120 Q135,115 150,98 Q162,75 152,55 Q132,36 100,42" fill="#FFD700" opacity="0.9"/>
<path d="M100,52 Q78,48 65,62 Q58,78 65,92 Q78,105 100,108 Q122,105 135,92 Q142,78 135,62 Q122,48 100,52" fill="#FFE44D" opacity="0.7"/>
<text x="100" y="185" font-family="sans-serif" font-size="11" fill="#3D2B1F" text-anchor="middle">花びらを整える</text>
</svg>