<svg xmlns="http://www.w3.org/2000/svg" viewBox="0 0 200 200" fill="none">
<rect width="200" height="200" rx="16" fill="#FDE7F0"/>
<polygon points="100,40 92,60 108,60" fill="#F5C518" opacity="0.9"/>
<polygon points="130,50 118,68 130,75" fill="#F5C518" opacity="0.9"/>
<polygon points="145,80 128,82 130,98" fill="#F5C518" opacity="0.9"/>
<polygon points="140,110 125,100 120,115" fill="#F5C518" opacity="0.9"/>
<polygon points="60,50 82,68 70,75" fill="#F5C518" opacity="0.9"/>
<polygon points="55,80 72,82 70,98" fill="#F5C518" opacity="0.9"/>
<polygon points="60,110 75,100 80,115" fill="#F5C518" opacity="0.9"/>
<polygon points="100,130 92,112 108,112" fill="#F5C518" opacity="0.9"/>
<circle cx="100" cy="88" r="18" fill="#8B5E3C"/>
<circle cx="100" cy="88" r="12" fill="#6B4226" opacity="0.6"/>
<line x1="100" y1="130" x2="100" y2="170" stroke="#7B9E6B" stroke-width="3"/>
</svg>