<svg xmlns="http://www.w3.org/2000/svg" viewBox="0 0 200 200">
<rect width="200" height="200" rx="12" fill="#FFF8F0"/>
<defs>
  <marker id="ah" markerWidth="8" markerHeight="6" refX="8" refY="3" orient="auto">
    <path d="M0,0 L8,3 L0,6" fill="#E07B54"/>
  </marker>
</defs>
<path d="M100,45 Q60,38 42,65 Q35,88 52,112 Q72,130 100,135 Q128,130 148,112 Q165,88 158,65 Q140,38 100,45" fill="#FF6B6B" opacity="0.9"/>
<path d="M100,55 Q75,50 62,70 Q55,85 68,100 Q80,112 100,115 Q120,112 132,100 Q145,85 138,70 Q125,50 100,55" fill="#FF4444" opacity="0.8"/>
<path d="M100,68 Q88,65 80,78 Q76,88 82,95 L100,100 L118,95 Q124,88 120,78 Q112,65 100,68" fill="#CC3333" opacity="0.7"/>
<text x="100" y="185" font-family="sans-serif" font-size="11" fill="#3D2B1F" text-anchor="middle">完成！</text>
</svg>