<svg xmlns="http://www.w3.org/2000/svg" viewBox="0 0 200 200">
<rect width="200" height="200" rx="12" fill="#FFF8F0"/>
<defs>
  <marker id="ah" markerWidth="8" markerHeight="6" refX="8" refY="3" orient="auto">
    <path d="M0,0 L8,3 L0,6" fill="#E07B54"/>
  </marker>
</defs>
<path d="M80,45 Q70,40 72,35 L100,30 L128,35 Q130,40 120,45 Q130,60 128,90 Q125,140 100,155 Q75,140 72,90 Q70,60 80,45" fill="#FF3B30" opacity="0.9"/>
<path d="M72,35 L80,42 L78,50" fill="#228B22"/>
<path d="M128,35 L120,42 L122,50" fill="#228B22"/>
<circle cx="90" cy="70" r="2" fill="#FFD700"/>
<circle cx="110" cy="80" r="2" fill="#FFD700"/>
<circle cx="95" cy="100" r="2" fill="#FFD700"/>
<circle cx="108" cy="110" r="2" fill="#FFD700"/>
<circle cx="100" cy="130" r="2" fill="#FFD700"/>
<text x="100" y="185" font-family="sans-serif" font-size="11" fill="#3D2B1F" text-anchor="middle">完成！</text>
</svg>