<svg xmlns="http://www.w3.org/2000/svg" viewBox="0 0 200 200">
<rect width="200" height="200" rx="12" fill="#FFF8F0"/>
<defs>
  <marker id="ah" markerWidth="8" markerHeight="6" refX="8" refY="3" orient="auto">
    <path d="M0,0 L8,3 L0,6" fill="#E07B54"/>
  </marker>
</defs>
<polygon points="55,90 70,60 130,60 145,90 155,140 45,140" fill="#F4A460" opacity="0.9"/>
<polygon points="55,90 45,65 65,75" fill="#D4884A" opacity="0.8"/>
<polygon points="145,90 155,65 135,75" fill="#D4884A" opacity="0.8"/>
<circle cx="80" cy="105" r="4" fill="#3D2B1F"/>
<circle cx="120" cy="105" r="4" fill="#3D2B1F"/>
<polygon points="100,115 96,122 104,122" fill="#3D2B1F"/>
<line x1="75" y1="118" x2="50" y2="115" stroke="#3D2B1F" stroke-width="1.5"/>
<line x1="75" y1="122" x2="50" y2="125" stroke="#3D2B1F" stroke-width="1.5"/>
<line x1="125" y1="118" x2="150" y2="115" stroke="#3D2B1F" stroke-width="1.5"/>
<line x1="125" y1="122" x2="150" y2="125" stroke="#3D2B1F" stroke-width="1.5"/>
<text x="100" y="185" font-family="sans-serif" font-size="11" fill="#3D2B1F" text-anchor="middle">完成！</text>
</svg>