<svg xmlns="http://www.w3.org/2000/svg" viewBox="0 0 200 200">
<rect width="200" height="200" rx="12" fill="#FFF8F0"/>
<defs>
  <marker id="ah" markerWidth="8" markerHeight="6" refX="8" refY="3" orient="auto">
    <path d="M0,0 L8,3 L0,6" fill="#E07B54"/>
  </marker>
</defs>
<polygon points="50,55 56,70 72,70 59,80 64,95 50,85 36,95 41,80 28,70 44,70" fill="#F5C518" opacity="0.9"/>
<polygon points="100,45 106,60 122,60 109,70 114,85 100,75 86,85 91,70 78,60 94,60" fill="#E05050" opacity="0.9"/>
<polygon points="150,55 156,70 172,70 159,80 164,95 150,85 136,95 141,80 128,70 144,70" fill="#5B8DB8" opacity="0.9"/>
<polygon points="75,110 81,125 97,125 84,135 89,150 75,140 61,150 66,135 53,125 69,125" fill="#9C6BAE" opacity="0.9"/>
<polygon points="125,110 131,125 147,125 134,135 139,150 125,140 111,150 116,135 103,125 119,125" fill="#7B9E6B" opacity="0.9"/>
<text x="100" y="185" font-family="sans-serif" font-size="11" fill="#3D2B1F" text-anchor="middle">5-6個作る</text>
</svg>