<svg xmlns="http://www.w3.org/2000/svg" viewBox="0 0 200 200">
<rect width="200" height="200" rx="12" fill="#FFF8F0"/>
<defs>
  <marker id="ah" markerWidth="8" markerHeight="6" refX="8" refY="3" orient="auto">
    <path d="M0,0 L8,3 L0,6" fill="#E07B54"/>
  </marker>
</defs>
<rect x="95" y="20" width="10" height="160" rx="2" fill="#7B9E6B" opacity="0.6"/>
<polygon points="80,40 70,65 85,60" fill="#7B9E6B" opacity="0.7"/>
<polygon points="120,55 130,80 115,75" fill="#7B9E6B" opacity="0.7"/>
<line x1="60" y1="90" x2="140" y2="90" stroke="#3D2B1F" stroke-width="1"/>
<polygon points="70,78 74,86 82,86 76,92 78,100 70,95 62,100 64,92 58,86 66,86" fill="#F5C518" opacity="0.9"/>
<polygon points="100,78 104,86 112,86 106,92 108,100 100,95 92,100 94,92 88,86 96,86" fill="#E05050" opacity="0.9"/>
<polygon points="130,78 134,86 142,86 136,92 138,100 130,95 122,100 124,92 118,86 126,86" fill="#5B8DB8" opacity="0.9"/>
<rect x="85" y="110" width="30" height="20" rx="2" fill="#FEFEFE" opacity="0.6"/>
<text x="100" y="185" font-family="sans-serif" font-size="11" fill="#3D2B1F" text-anchor="middle">完成！</text>
</svg>