<svg xmlns="http://www.w3.org/2000/svg" viewBox="0 0 200 200">
<rect width="200" height="200" rx="12" fill="#FFF8F0"/>
<defs>
  <marker id="ah" markerWidth="8" markerHeight="6" refX="8" refY="3" orient="auto">
    <path d="M0,0 L8,3 L0,6" fill="#E07B54"/>
  </marker>
</defs>
<line x1="20" y1="100" x2="180" y2="100" stroke="#3D2B1F" stroke-width="1.5"/>
<polygon points="40,85 44,93 52,93 46,99 48,107 40,102 32,107 34,99 28,93 36,93" fill="#F5C518" opacity="0.9"/>
<polygon points="75,85 79,93 87,93 81,99 83,107 75,102 67,107 69,99 63,93 71,93" fill="#E05050" opacity="0.9"/>
<polygon points="110,85 114,93 122,93 116,99 118,107 110,102 102,107 104,99 98,93 106,93" fill="#5B8DB8" opacity="0.9"/>
<polygon points="145,85 149,93 157,93 151,99 153,107 145,102 137,107 139,99 133,93 141,93" fill="#9C6BAE" opacity="0.9"/>
<text x="100" y="185" font-family="sans-serif" font-size="11" fill="#3D2B1F" text-anchor="middle">等間隔に貼る</text>
</svg>