<svg xmlns="http://www.w3.org/2000/svg" viewBox="0 0 200 200">
<rect width="200" height="200" rx="12" fill="#FFF8F0"/>
<defs>
  <marker id="ah" markerWidth="8" markerHeight="6" refX="8" refY="3" orient="auto">
    <path d="M0,0 L8,3 L0,6" fill="#E07B54"/>
  </marker>
</defs>
<polygon points="70,40 130,40 140,130 100,150 60,130" fill="#E05050" opacity="0.9"/>
<polygon points="70,40 100,25 130,40" fill="#E05050" opacity="0.9"/>
<circle cx="100" cy="20" r="8" fill="#FEFEFE"/>
<rect x="60" y="38" width="80" height="8" rx="4" fill="#FEFEFE"/>
<polygon points="65,125 135,125 130,140 100,150 70,140" fill="#FEFEFE" opacity="0.85"/>
<circle cx="85" cy="80" r="4" fill="#3D2B1F"/>
<circle cx="115" cy="80" r="4" fill="#3D2B1F"/>
<circle cx="100" cy="100" r="5" fill="#E05050"/>
<path d="M85,112 Q100,122 115,112" stroke="#3D2B1F" stroke-width="1.5" fill="none"/>
<text x="100" y="185" font-family="sans-serif" font-size="11" fill="#3D2B1F" text-anchor="middle">完成！</text>
</svg>